<svg xmlns="http://www.w3.org/2000/svg" width="120" height="120" viewBox="0 0 120 120">
  <defs>
    <filter id="glow" x="-50%" y="-50%" width="200%" height="200%">
      <feDropShadow dx="0" dy="0" stdDeviation="3" flood-color="#e5484d" flood-opacity="0.6"/>
    </filter>
  </defs>
  <g transform="translate(60,60)" filter="url(#glow)">
    <g>
      <animateTransform attributeName="transform" type="scale"
        values="1 1;0 1;-1 1;0 1;1 1" keyTimes="0;0.25;0.5;0.75;1"
        dur="6s" repeatCount="indefinite"/>
      <g transform="translate(-60,-60)" fill="#e5484d">
        <g transform="translate(6,6) scale(0.18) translate(0,600) scale(0.1,-0.1)">
          <path opacity="1" d="M2084 5647 c-460 -243 -818 -684 -958 -1182 -87 -311 -98 -597 -35 -925 107 -556 488 -1066 1000 -1339 183 -98 461 -188 631 -206 l67 -7 3 -317 3 -316 95 -519 c59 -326 97 -512 102 -500 4 11 51 237 105 504 l98 485 5 330 5 330 90 12 c444 63 870 291 1163 623 200 227 340 493 417 794 234 914 -184 1840 -1022 2265 l-43 21 0 -32 c1 -30 7 -36 62 -68 405 -232 714 -678 799 -1156 29 -160 31 -424 5 -569 -95 -525 -413 -964 -886 -1223 -150 -82 -386 -161 -533 -178 l-57 -7 0 349 c0 329 1 351 20 381 25 42 101 80 190 95 56 10 70 16 70 30 0 17 -25 18 -480 18 -462 0 -480 -1 -480 -19 0 -15 10 -20 51 -25 80 -11 154 -43 188 -82 l31 -35 0 -354 0 -355 -22 0 c-13 0 -68 11 -123 24 -689 168 -1269 839 -1335 1546 -26 280 38 598 178 876 124 248 349 499 580 649 108 70 122 82 122 107 0 15 -1 28 -2 28 -2 0 -48 -24 -104 -53z">
            <animate attributeName="opacity"
              values="1;1;0;0;1;1" keyTimes="0;0.2;0.3;0.7;0.8;1"
              dur="6s" repeatCount="indefinite"/>
          </path>
        </g>
        <g transform="translate(19.5,6) scale(0.105)">
          <path opacity="0" d="M768 128c0-71-57-128-128-128s-128 57-128 128c0 47 26 89 64 111v106l-192 212-192-212v-106c38-22 64-63 64-111 0-71-57-128-128-128s-128 57-128 128c0 47 26 89 64 111v156l256 282v109c-38 22-64 63-64 111 0 71 57 128 128 128s128-57 128-128c0-47-26-89-64-111v-109l256-282v-156c38-22 64-63 64-111z m-640-63c34 0 62 28 62 62s-28 62-62 62-62-28-62-62 28-62 62-62z m256 891c-34 0-62-28-62-62s28-62 62-62 62 28 62 62-28 62-62 62z m256-891c34 0 62 28 62 62s-28 62-62 62-62-28-62-62 28-62 62-62z">
            <animate attributeName="opacity"
              values="0;0;1;1;0;0" keyTimes="0;0.2;0.3;0.7;0.8;1"
              dur="6s" repeatCount="indefinite"/>
          </path>
        </g>
      </g>
    </g>
  </g>
</svg>
