<svg xmlns="http://www.w3.org/2000/svg" viewBox="0 0 600 600">
  <g transform="translate(0.000000,600.000000) scale(0.100000,-0.100000)"><path d="M2084 5647 c-460 -243 -818 -684 -958 -1182 -87 -311 -98 -597 -35 -925 107 -556 488 -1066 1000 -1339 183 -98 461 -188 631 -206 l67 -7 3 -317 3 -316 95 -519 c59 -326 97 -512 102 -500 4 11 51 237 105 504 l98 485 5 330 5 330 90 12 c444 63 870 291 1163 623 200 227 340 493 417 794 234 914 -184 1840 -1022 2265 l-43 21 0 -32 c1 -30 7 -36 62 -68 405 -232 714 -678 799 -1156 29 -160 31 -424 5 -569 -95 -525 -413 -964 -886 -1223 -150 -82 -386 -161 -533 -178 l-57 -7 0 349 c0 329 1 351 20 381 25 42 101 80 190 95 56 10 70 16 70 30 0 17 -25 18 -480 18 -462 0 -480 -1 -480 -19 0 -15 10 -20 51 -25 80 -11 154 -43 188 -82 l31 -35 0 -354 0 -355 -22 0 c-13 0 -68 11 -123 24 -689 168 -1269 839 -1335 1546 -26 280 38 598 178 876 124 248 349 499 580 649 108 70 122 82 122 107 0 15 -1 28 -2 28 -2 0 -48 -24 -104 -53z"/></g>
</svg>
